STARTFONT 2.1
FONT -Monotype-Book Antiqua-Regular-R-Normal--19-140-100-100-P-92-iso8859-9
SIZE 14 100 100
FONTBOUNDINGBOX 22 22 -2 -5

STARTPROPERTIES 24
FOUNDRY "Monotype"
FAMILY_NAME "Book Antiqua"
WEIGHT_NAME "Regular"
SLANT "R"
SETWIDTH_NAME "Normal"
ADD_STYLE_NAME ""
PIXEL_SIZE 19
POINT_SIZE 140
RESOLUTION_X 100
RESOLUTION_Y 100
SPACING "P"
AVERAGE_WIDTH 92
CHARSET_REGISTRY "iso8859"
CHARSET_ENCODING "9"
FACE_NAME "Book Antiqua ISO Latin5"
_DEC_DEVICE_FONTNAMES "PS=bookantiqua-lat5"
COPYRIGHT "Copyright (c) 1994 Monotype Typography Ltd."
CAP_HEIGHT 16
X_HEIGHT 11
WEIGHT 10
QUAD_WIDTH 12
DEFAULT_CHAR 160
FONT_DESCENT 6
FONT_ASCENT 18
ENDPROPERTIES

CHARS 191

STARTCHAR space
ENCODING 32
SWIDTH 250 0
DWIDTH 5 0
BBX 0 0 0 0
BITMAP
ENDCHAR

STARTCHAR exclam
ENCODING 33
SWIDTH 278 0
DWIDTH 5 0
BBX 2 14 2 0
BITMAP
40
C0
C0
C0
C0
C0
C0
C0
C0
C0
C0
00
C0
C0
ENDCHAR

STARTCHAR quotedbl
ENCODING 34
SWIDTH 371 0
DWIDTH 7 0
BBX 5 5 1 8
BITMAP
D8
D8
D8
48
48
ENDCHAR

STARTCHAR numbersign
ENCODING 35
SWIDTH 606 0
DWIDTH 12 0
BBX 13 13 0 0
BITMAP
0C60
0C60
0C60
0C60
7FF8
18C0
18C0
18C0
FFF0
3180
3180
3180
3180
ENDCHAR

STARTCHAR dollar
ENCODING 36
SWIDTH 500 0
DWIDTH 10 0
BBX 9 17 1 -2
BITMAP
0800
0800
3F00
6900
C900
C800
E800
7800
3E00
0F00
0B80
0980
8980
8B00
FE00
0800
0800
ENDCHAR

STARTCHAR percent
ENCODING 37
SWIDTH 840 0
DWIDTH 16 0
BBX 11 13 3 0
BITMAP
7080
D880
8900
8900
8A00
DA00
75C0
0760
0A20
0A20
1220
1360
21C0
ENDCHAR

STARTCHAR ampersand
ENCODING 38
SWIDTH 778 0
DWIDTH 15 0
BBX 14 13 1 0
BITMAP
0600
0B00
1900
1B00
1E00
1800
2CF8
4620
C720
C3C0
E0C0
71E4
3E38
ENDCHAR

STARTCHAR quoteright
ENCODING 39
SWIDTH 278 0
DWIDTH 5 0
BBX 4 5 1 9
BITMAP
30
30
60
40
80
ENDCHAR

STARTCHAR parenleft
ENCODING 40
SWIDTH 333 0
DWIDTH 6 0
BBX 5 19 1 -5
BITMAP
08
10
30
20
60
60
C0
C0
C0
C0
C0
C0
C0
60
60
20
30
10
08
ENDCHAR

STARTCHAR parenright
ENCODING 41
SWIDTH 333 0
DWIDTH 6 0
BBX 5 19 1 -5
BITMAP
80
40
60
20
30
30
18
18
18
18
18
18
18
30
30
20
60
40
80
ENDCHAR

STARTCHAR asterisk
ENCODING 42
SWIDTH 389 0
DWIDTH 7 0
BBX 7 6 0 8
BITMAP
10
54
FE
10
28
6C
ENDCHAR

STARTCHAR plus
ENCODING 43
SWIDTH 606 0
DWIDTH 12 0
BBX 9 9 2 2
BITMAP
0800
0800
0800
0800
FF80
0800
0800
0800
0800
ENDCHAR

STARTCHAR comma
ENCODING 44
SWIDTH 250 0
DWIDTH 5 0
BBX 4 5 0 -3
BITMAP
30
30
60
40
80
ENDCHAR

STARTCHAR minus
ENCODING 45
SWIDTH 606 0
DWIDTH 12 0
BBX 9 1 2 6
BITMAP
FF80
ENDCHAR

STARTCHAR period
ENCODING 46
SWIDTH 250 0
DWIDTH 5 0
BBX 2 2 2 0
BITMAP
C0
C0
ENDCHAR

STARTCHAR slash
ENCODING 47
SWIDTH 606 0
DWIDTH 12 0
BBX 10 19 1 -5
BITMAP
00C0
0080
0180
0100
0300
0200
0200
0600
0400
0C00
0800
1800
1000
1000
3000
2000
6000
4000
C000
ENDCHAR

STARTCHAR zero
ENCODING 48
SWIDTH 500 0
DWIDTH 10 0
BBX 9 13 1 0
BITMAP
1C00
2200
6300
C180
C180
C180
C180
C180
C180
C180
6300
2200
1C00
ENDCHAR

STARTCHAR one
ENCODING 49
SWIDTH 500 0
DWIDTH 10 0
BBX 6 13 2 0
BITMAP
10
30
F0
30
30
30
30
30
30
30
30
30
FC
ENDCHAR

STARTCHAR two
ENCODING 50
SWIDTH 500 0
DWIDTH 10 0
BBX 9 13 1 0
BITMAP
3C00
6600
4300
4300
0300
0300
0600
0400
0800
1000
2000
7F80
FF80
ENDCHAR

STARTCHAR three
ENCODING 51
SWIDTH 500 0
DWIDTH 10 0
BBX 9 13 1 0
BITMAP
3C00
6600
4300
4300
0200
0400
1F00
0380
0180
0180
8180
4300
3C00
ENDCHAR

STARTCHAR four
ENCODING 52
SWIDTH 500 0
DWIDTH 10 0
BBX 9 13 1 0
BITMAP
0200
0600
0E00
0E00
1600
2600
4600
8600
FF80
0600
0600
0600
1F80
ENDCHAR

STARTCHAR five
ENCODING 53
SWIDTH 500 0
DWIDTH 10 0
BBX 8 13 1 0
BITMAP
7E
7E
40
40
7C
46
03
03
03
03
86
44
38
ENDCHAR

STARTCHAR six
ENCODING 54
SWIDTH 500 0
DWIDTH 10 0
BBX 9 13 1 0
BITMAP
0300
0C00
1000
3000
6000
7E00
E300
C180
C180
C180
C180
6300
3E00
ENDCHAR

STARTCHAR seven
ENCODING 55
SWIDTH 500 0
DWIDTH 10 0
BBX 8 13 1 0
BITMAP
FF
FF
83
82
04
0C
08
18
10
30
30
60
60
ENDCHAR

STARTCHAR eight
ENCODING 56
SWIDTH 500 0
DWIDTH 10 0
BBX 8 13 1 0
BITMAP
3C
42
C3
C3
C3
66
3C
66
C3
C3
C3
42
3C
ENDCHAR

STARTCHAR nine
ENCODING 57
SWIDTH 500 0
DWIDTH 10 0
BBX 9 13 1 0
BITMAP
3E00
6300
C180
C180
C180
C180
6380
3F00
0300
0600
0400
1800
6000
ENDCHAR

STARTCHAR colon
ENCODING 58
SWIDTH 250 0
DWIDTH 5 0
BBX 2 9 2 0
BITMAP
C0
C0
00
00
00
00
00
C0
C0
ENDCHAR

STARTCHAR semicolon
ENCODING 59
SWIDTH 250 0
DWIDTH 5 0
BBX 4 12 0 -3
BITMAP
30
30
00
00
00
00
00
30
30
60
40
80
ENDCHAR

STARTCHAR less
ENCODING 60
SWIDTH 606 0
DWIDTH 12 0
BBX 9 9 2 2
BITMAP
0080
0380
0E00
3800
E000
3800
0E00
0380
0080
ENDCHAR

STARTCHAR equal
ENCODING 61
SWIDTH 606 0
DWIDTH 12 0
BBX 9 3 2 5
BITMAP
FF80
0000
FF80
ENDCHAR

STARTCHAR greater
ENCODING 62
SWIDTH 606 0
DWIDTH 12 0
BBX 9 9 2 2
BITMAP
8000
E000
3800
0E00
0380
0E00
3800
E000
8000
ENDCHAR

STARTCHAR question
ENCODING 63
SWIDTH 444 0
DWIDTH 8 0
BBX 7 14 1 0
BITMAP
7C
CE
86
86
06
06
0C
18
30
20
20
00
60
60
ENDCHAR

STARTCHAR at
ENCODING 64
SWIDTH 747 0
DWIDTH 14 0
BBX 14 16 0 -3
BITMAP
03C0
0C30
1008
2008
41A4
4264
8644
84C4
8CC4
8C88
8D90
46E4
4004
2008
1830
07C0
ENDCHAR

STARTCHAR A
ENCODING 65
SWIDTH 778 0
DWIDTH 15 0
BBX 15 13 0 0
BITMAP
0100
0100
0380
0380
04C0
04C0
0860
0860
1FF0
1030
2018
2018
F87E
ENDCHAR

STARTCHAR B
ENCODING 66
SWIDTH 611 0
DWIDTH 13 0
BBX 11 13 1 0
BITMAP
FF80
30C0
30C0
30C0
3180
3F00
30C0
3060
3060
3060
3060
30C0
FF80
ENDCHAR

STARTCHAR C
ENCODING 67
SWIDTH 709 0
DWIDTH 13 0
BBX 12 13 1 0
BITMAP
0FF0
3010
6010
6000
C000
C000
C000
C000
C000
6000
6010
3020
0FC0
ENDCHAR

STARTCHAR D
ENCODING 68
SWIDTH 774 0
DWIDTH 16 0
BBX 14 13 1 0
BITMAP
FFC0
3070
3018
3018
300C
300C
300C
300C
300C
3018
3018
3070
FFC0
ENDCHAR

STARTCHAR E
ENCODING 69
SWIDTH 611 0
DWIDTH 12 0
BBX 11 13 1 0
BITMAP
FFE0
3020
3020
3000
3080
3080
3F80
3080
3080
3000
3020
3020
FFE0
ENDCHAR

STARTCHAR F
ENCODING 70
SWIDTH 556 0
DWIDTH 11 0
BBX 11 13 0 0
BITMAP
FFE0
3020
3020
3000
3080
3080
3F80
3080
3080
3000
3000
3000
FC00
ENDCHAR

STARTCHAR G
ENCODING 71
SWIDTH 763 0
DWIDTH 14 0
BBX 13 13 1 0
BITMAP
0FF0
3010
6010
6000
C000
C000
C000
C000
C0F8
6030
6030
3030
0FE0
ENDCHAR

STARTCHAR H
ENCODING 72
SWIDTH 832 0
DWIDTH 16 0
BBX 14 13 1 0
BITMAP
FCFC
3030
3030
3030
3030
3030
3FF0
3030
3030
3030
3030
3030
FCFC
ENDCHAR

STARTCHAR I
ENCODING 73
SWIDTH 337 0
DWIDTH 6 0
BBX 6 13 0 0
BITMAP
FC
30
30
30
30
30
30
30
30
30
30
30
FC
ENDCHAR

STARTCHAR J
ENCODING 74
SWIDTH 333 0
DWIDTH 6 0
BBX 6 17 0 -4
BITMAP
FC
30
30
30
30
30
30
30
30
30
30
30
30
30
30
A0
C0
ENDCHAR

STARTCHAR K
ENCODING 75
SWIDTH 726 0
DWIDTH 14 0
BBX 14 13 1 0
BITMAP
FC78
3060
30C0
3100
3200
3400
3E00
3700
3380
31C0
30E0
3070
FC3C
ENDCHAR

STARTCHAR L
ENCODING 76
SWIDTH 611 0
DWIDTH 12 0
BBX 11 13 1 0
BITMAP
FC00
3000
3000
3000
3000
3000
3000
3000
3000
3000
3020
3020
FFE0
ENDCHAR

STARTCHAR M
ENCODING 77
SWIDTH 946 0
DWIDTH 18 0
BBX 18 13 0 0
BITMAP
F003C0
380700
380700
2C0B00
2C0B00
261300
261300
232300
232300
21C300
21C300
208300
F88FC0
ENDCHAR

STARTCHAR N
ENCODING 78
SWIDTH 831 0
DWIDTH 16 0
BBX 14 13 1 0
BITMAP
F07C
3810
3810
3C10
2E10
2610
2710
2390
21D0
20F0
20F0
2070
F830
ENDCHAR

STARTCHAR O
ENCODING 79
SWIDTH 786 0
DWIDTH 15 0
BBX 13 13 1 0
BITMAP
0F80
3060
6030
6030
C018
C018
C018
C018
C018
6030
6030
3060
0F80
ENDCHAR

STARTCHAR P
ENCODING 80
SWIDTH 604 0
DWIDTH 11 0
BBX 11 13 0 0
BITMAP
FF00
30C0
3060
3060
3060
30C0
3700
3000
3000
3000
3000
3000
FC00
ENDCHAR

STARTCHAR Q
ENCODING 81
SWIDTH 786 0
DWIDTH 15 0
BBX 13 16 1 -3
BITMAP
0F80
3060
6030
6030
C018
C018
C018
C018
C018
6030
6030
3060
0F80
0700
09C8
0070
ENDCHAR

STARTCHAR R
ENCODING 82
SWIDTH 668 0
DWIDTH 13 0
BBX 14 13 1 0
BITMAP
FF80
30C0
3060
3060
3060
30C0
3700
3300
3180
30C0
3060
3070
FC3C
ENDCHAR

STARTCHAR S
ENCODING 83
SWIDTH 525 0
DWIDTH 11 0
BBX 9 13 1 0
BITMAP
1F80
6080
C080
C000
E000
7800
3E00
0F00
0380
0180
8180
8300
FC00
ENDCHAR

STARTCHAR T
ENCODING 84
SWIDTH 613 0
DWIDTH 12 0
BBX 10 13 1 0
BITMAP
FFC0
8C40
8C40
0C00
0C00
0C00
0C00
0C00
0C00
0C00
0C00
0C00
3F00
ENDCHAR

STARTCHAR U
ENCODING 85
SWIDTH 778 0
DWIDTH 15 0
BBX 14 13 1 0
BITMAP
FC7C
3010
3010
3010
3010
3010
3010
3010
3010
3010
3010
1820
0FC0
ENDCHAR

STARTCHAR V
ENCODING 86
SWIDTH 722 0
DWIDTH 14 0
BBX 14 13 0 0
BITMAP
FC7C
3010
3010
1820
1820
0C40
0C40
0640
0680
0380
0300
0100
0100
ENDCHAR

STARTCHAR W
ENCODING 87
SWIDTH 1000 0
DWIDTH 19 0
BBX 19 13 0 0
BITMAP
FC43E0
306080
306080
30F100
18B100
193100
193900
1A1A00
0E1A00
0E0E00
0C0C00
040400
040400
ENDCHAR

STARTCHAR X
ENCODING 88
SWIDTH 667 0
DWIDTH 12 0
BBX 12 13 0 0
BITMAP
7030
3860
1840
0C80
0D00
0600
0300
0500
0980
10C0
30C0
6060
E070
ENDCHAR

STARTCHAR Y
ENCODING 89
SWIDTH 667 0
DWIDTH 12 0
BBX 12 13 0 0
BITMAP
4030
E040
3080
1880
0900
0D00
0600
0600
0600
0600
0600
0600
1F80
ENDCHAR

STARTCHAR Z
ENCODING 90
SWIDTH 667 0
DWIDTH 13 0
BBX 11 13 1 0
BITMAP
7FE0
40C0
4180
0300
0300
0600
0C00
1800
1800
3000
6020
C020
FFE0
ENDCHAR

STARTCHAR bracketleft
ENCODING 91
SWIDTH 333 0
DWIDTH 6 0
BBX 4 19 1 -5
BITMAP
F0
C0
C0
C0
C0
C0
C0
C0
C0
C0
C0
C0
C0
C0
C0
C0
C0
C0
F0
ENDCHAR

STARTCHAR backslash
ENCODING 92
SWIDTH 606 0
DWIDTH 12 0
BBX 10 19 1 -5
BITMAP
C000
4000
6000
2000
3000
1000
1000
1800
0800
0C00
0400
0600
0200
0200
0300
0100
0180
0080
00C0
ENDCHAR

STARTCHAR bracketright
ENCODING 93
SWIDTH 333 0
DWIDTH 6 0
BBX 4 19 1 -5
BITMAP
F0
30
30
30
30
30
30
30
30
30
30
30
30
30
30
30
30
30
F0
ENDCHAR

STARTCHAR asciicircum
ENCODING 94
SWIDTH 606 0
DWIDTH 12 0
BBX 7 8 3 6
BITMAP
10
10
38
28
6C
44
C6
82
ENDCHAR

STARTCHAR underscore
ENCODING 95
SWIDTH 500 0
DWIDTH 10 0
BBX 10 1 0 -2
BITMAP
FFC0
ENDCHAR

STARTCHAR quoteleft
ENCODING 96
SWIDTH 278 0
DWIDTH 5 0
BBX 4 5 1 9
BITMAP
10
20
60
C0
C0
ENDCHAR

STARTCHAR a
ENCODING 97
SWIDTH 500 0
DWIDTH 10 0
BBX 9 9 1 0
BITMAP
3E00
4300
0300
1F00
6300
C300
C300
C700
7B80
ENDCHAR

STARTCHAR b
ENCODING 98
SWIDTH 553 0
DWIDTH 11 0
BBX 11 14 0 0
BITMAP
1000
F000
3000
3000
3000
3700
38C0
3060
3060
3060
3060
3060
38C0
2700
ENDCHAR

STARTCHAR c
ENCODING 99
SWIDTH 444 0
DWIDTH 8 0
BBX 7 9 1 0
BITMAP
1E
62
C2
C0
C0
C0
C0
62
3C
ENDCHAR

STARTCHAR d
ENCODING 100
SWIDTH 611 0
DWIDTH 11 0
BBX 10 14 1 0
BITMAP
0080
0780
0180
0180
0180
3D80
6380
C180
C180
C180
C180
C180
6380
3DC0
ENDCHAR

STARTCHAR e
ENCODING 101
SWIDTH 479 0
DWIDTH 9 0
BBX 8 9 1 0
BITMAP
3C
66
C3
C3
FF
C0
C0
61
3E
ENDCHAR

STARTCHAR f
ENCODING 102
SWIDTH 333 0
DWIDTH 6 0
BBX 7 14 0 0
BITMAP
0E
12
30
30
30
FC
30
30
30
30
30
30
30
FC
ENDCHAR

STARTCHAR g
ENCODING 103
SWIDTH 556 0
DWIDTH 11 0
BBX 10 14 1 -5
BITMAP
3CC0
4300
C300
C300
C200
7C00
3000
6000
3F00
4380
C180
C180
6300
3E00
ENDCHAR

STARTCHAR h
ENCODING 104
SWIDTH 582 0
DWIDTH 11 0
BBX 12 14 0 0
BITMAP
1000
F000
3000
3000
3000
3780
38C0
30C0
30C0
30C0
30C0
30C0
30C0
FCF0
ENDCHAR

STARTCHAR i
ENCODING 105
SWIDTH 291 0
DWIDTH 5 0
BBX 6 13 0 0
BITMAP
30
30
00
00
10
F0
30
30
30
30
30
30
FC
ENDCHAR

STARTCHAR j
ENCODING 106
SWIDTH 234 0
DWIDTH 5 0
BBX 4 18 0 -5
BITMAP
30
30
00
00
10
F0
30
30
30
30
30
30
30
30
30
30
20
C0
ENDCHAR

STARTCHAR k
ENCODING 107
SWIDTH 556 0
DWIDTH 11 0
BBX 11 14 0 0
BITMAP
1000
F000
3000
3000
3000
31C0
3300
3400
3800
3C00
3600
3300
3180
FCE0
ENDCHAR

STARTCHAR l
ENCODING 108
SWIDTH 291 0
DWIDTH 6 0
BBX 6 14 0 0
BITMAP
10
F0
30
30
30
30
30
30
30
30
30
30
30
FC
ENDCHAR

STARTCHAR m
ENCODING 109
SWIDTH 883 0
DWIDTH 17 0
BBX 18 9 0 0
BITMAP
179E00
F8E300
30C300
30C300
30C300
30C300
30C300
30C300
FDE3C0
ENDCHAR

STARTCHAR n
ENCODING 110
SWIDTH 582 0
DWIDTH 11 0
BBX 12 9 0 0
BITMAP
1780
F8C0
30C0
30C0
30C0
30C0
30C0
30C0
FCF0
ENDCHAR

STARTCHAR o
ENCODING 111
SWIDTH 546 0
DWIDTH 10 0
BBX 9 9 1 0
BITMAP
3E00
6300
C180
C180
C180
C180
C180
6300
3E00
ENDCHAR

STARTCHAR p
ENCODING 112
SWIDTH 601 0
DWIDTH 11 0
BBX 11 14 0 -5
BITMAP
1780
F8C0
3060
3060
3060
3060
3060
38C0
3780
3000
3000
3000
3000
FC00
ENDCHAR

STARTCHAR q
ENCODING 113
SWIDTH 560 0
DWIDTH 11 0
BBX 11 14 1 -5
BITMAP
3C80
6380
C180
C180
C180
C180
C180
6380
3D80
0180
0180
0180
0180
07E0
ENDCHAR

STARTCHAR r
ENCODING 114
SWIDTH 395 0
DWIDTH 8 0
BBX 7 9 1 0
BITMAP
16
FE
32
30
30
30
30
30
FC
ENDCHAR

STARTCHAR s
ENCODING 115
SWIDTH 424 0
DWIDTH 8 0
BBX 6 9 1 0
BITMAP
7C
84
C4
E0
78
1C
8C
84
F8
ENDCHAR

STARTCHAR t
ENCODING 116
SWIDTH 326 0
DWIDTH 6 0
BBX 5 12 1 0
BITMAP
20
60
60
60
F8
60
60
60
60
60
68
30
ENDCHAR

STARTCHAR u
ENCODING 117
SWIDTH 603 0
DWIDTH 11 0
BBX 11 9 0 0
BITMAP
1040
F3C0
30C0
30C0
30C0
30C0
30C0
31C0
1EE0
ENDCHAR

STARTCHAR v
ENCODING 118
SWIDTH 565 0
DWIDTH 11 0
BBX 12 9 0 0
BITMAP
FDF0
3040
3040
1880
1880
0D00
0D00
0600
0600
ENDCHAR

STARTCHAR w
ENCODING 119
SWIDTH 834 0
DWIDTH 16 0
BBX 17 9 0 0
BITMAP
FC8F80
308200
31C200
31C400
1A6400
1A6800
1C6800
0C3000
0C3000
ENDCHAR

STARTCHAR x
ENCODING 120
SWIDTH 516 0
DWIDTH 10 0
BBX 8 9 1 0
BITMAP
E3
62
34
38
18
1C
2C
46
C7
ENDCHAR

STARTCHAR y
ENCODING 121
SWIDTH 556 0
DWIDTH 11 0
BBX 10 14 1 -5
BITMAP
F3C0
6180
6100
3100
3200
1A00
1C00
0C00
0800
0800
1000
1000
A000
C000
ENDCHAR

STARTCHAR z
ENCODING 122
SWIDTH 500 0
DWIDTH 10 0
BBX 8 9 1 0
BITMAP
FF
86
8C
18
30
30
61
C1
FF
ENDCHAR

STARTCHAR braceleft
ENCODING 123
SWIDTH 333 0
DWIDTH 6 0
BBX 6 19 0 -5
BITMAP
0C
10
30
30
30
30
30
20
40
80
40
20
30
30
30
30
30
10
0C
ENDCHAR

STARTCHAR bar
ENCODING 124
SWIDTH 606 0
DWIDTH 12 0
BBX 2 19 5 -5
BITMAP
C0
C0
C0
C0
C0
C0
C0
C0
C0
C0
C0
C0
C0
C0
C0
C0
C0
C0
C0
ENDCHAR

STARTCHAR braceright
ENCODING 125
SWIDTH 333 0
DWIDTH 6 0
BBX 6 19 0 -5
BITMAP
C0
20
30
30
30
30
30
10
08
04
08
10
30
30
30
30
30
20
C0
ENDCHAR

STARTCHAR asciitilde
ENCODING 126
SWIDTH 606 0
DWIDTH 12 0
BBX 9 2 1 5
BITMAP
7C80
9F00
ENDCHAR

STARTCHAR space
ENCODING 160
SWIDTH 250 0
DWIDTH 6 0
BBX 0 0 0 0
BITMAP
ENDCHAR

STARTCHAR exclamdown
ENCODING 161
SWIDTH 278 0
DWIDTH 5 0
BBX 2 14 2 -5
BITMAP
C0
C0
00
C0
C0
C0
C0
C0
C0
C0
C0
C0
C0
80
ENDCHAR

STARTCHAR cent
ENCODING 162
SWIDTH 500 0
DWIDTH 10 0
BBX 7 12 2 0
BITMAP
08
1E
6A
CA
C8
C8
C8
C8
6A
3C
08
08
ENDCHAR

STARTCHAR sterling
ENCODING 163
SWIDTH 500 0
DWIDTH 10 0
BBX 9 13 0 0
BITMAP
0780
0880
1080
3000
3000
3000
FE00
3000
3000
3000
3080
7980
CF00
ENDCHAR

STARTCHAR currency
ENCODING 164
SWIDTH 606 0
DWIDTH 12 0
BBX 9 9 2 2
BITMAP
BE80
6300
C180
8080
8080
8080
C180
6300
BE80
ENDCHAR

STARTCHAR yen
ENCODING 165
SWIDTH 500 0
DWIDTH 13 0
BBX 12 13 1 0
BITMAP
4030
E040
3080
1880
0900
0D00
0600
3FC0
0600
3FC0
0600
0600
1F80
ENDCHAR

STARTCHAR brokenbar
ENCODING 166
SWIDTH 606 0
DWIDTH 12 0
BBX 2 19 5 -5
BITMAP
C0
C0
C0
C0
C0
C0
C0
C0
00
00
00
C0
C0
C0
C0
C0
C0
C0
C0
ENDCHAR

STARTCHAR section
ENCODING 167
SWIDTH 500 0
DWIDTH 10 0
BBX 7 19 1 -5
BITMAP
3E
42
C2
C0
C0
60
F8
DC
C6
C6
C6
66
3E
0C
06
06
86
84
F8
ENDCHAR

STARTCHAR dieresis
ENCODING 168
SWIDTH 333 0
DWIDTH 6 0
BBX 6 2 0 10
BITMAP
CC
CC
ENDCHAR

STARTCHAR copyright
ENCODING 169
SWIDTH 747 0
DWIDTH 14 0
BBX 14 13 0 0
BITMAP
0780
1860
27D0
4848
5048
B004
B004
B004
5008
4848
2790
1860
0780
ENDCHAR

STARTCHAR ordfeminine
ENCODING 170
SWIDTH 333 0
DWIDTH 6 0
BBX 5 6 1 8
BITMAP
60
30
70
B0
B0
58
ENDCHAR

STARTCHAR guillemotleft
ENCODING 171
SWIDTH 500 0
DWIDTH 10 0
BBX 8 7 1 1
BITMAP
11
22
66
CC
66
22
11
ENDCHAR

STARTCHAR logicalnot
ENCODING 172
SWIDTH 606 0
DWIDTH 12 0
BBX 9 4 2 4
BITMAP
FF80
0080
0080
0080
ENDCHAR

STARTCHAR hyphen
ENCODING 173
SWIDTH 333 0
DWIDTH 6 0
BBX 6 1 0 4
BITMAP
FC
ENDCHAR

STARTCHAR registered
ENCODING 174
SWIDTH 747 0
DWIDTH 14 0
BBX 14 13 0 0
BITMAP
0FC0
3030
5F88
4CC8
8CC4
8C84
8F04
8D84
8C44
5EE8
4008
3030
0FC0
ENDCHAR

STARTCHAR macron
ENCODING 175
SWIDTH 333 0
DWIDTH 6 0
BBX 6 1 0 10
BITMAP
FC
ENDCHAR

STARTCHAR degree
ENCODING 176
SWIDTH 401 0
DWIDTH 8 0
BBX 6 6 1 7
BITMAP
78
CC
CC
CC
CC
78
ENDCHAR

STARTCHAR plusminus
ENCODING 177
SWIDTH 606 0
DWIDTH 12 0
BBX 9 11 2 0
BITMAP
0800
0800
0800
0800
FF80
0800
0800
0800
0800
0000
FF80
ENDCHAR

STARTCHAR twosuperior
ENCODING 178
SWIDTH 310 0
DWIDTH 6 0
BBX 5 8 0 5
BITMAP
70
98
18
18
30
20
40
F8
ENDCHAR

STARTCHAR threesuperior
ENCODING 179
SWIDTH 310 0
DWIDTH 6 0
BBX 5 8 0 5
BITMAP
70
98
18
30
18
18
98
70
ENDCHAR

STARTCHAR acute
ENCODING 180
SWIDTH 333 0
DWIDTH 6 0
BBX 4 2 1 10
BITMAP
70
C0
ENDCHAR

STARTCHAR mu
ENCODING 181
SWIDTH 561 0
DWIDTH 11 0
BBX 9 12 2 -3
BITMAP
C600
C600
C600
C600
C600
C600
C600
CE80
F300
C000
C000
C000
ENDCHAR

STARTCHAR paragraph
ENCODING 182
SWIDTH 628 0
DWIDTH 12 0
BBX 10 18 1 -5
BITMAP
3FC0
7C80
FC80
FC80
FC80
7C80
3C80
0480
0480
0480
0480
0480
0480
0480
0480
0480
0480
0480
ENDCHAR

STARTCHAR periodcentered
ENCODING 183
SWIDTH 250 0
DWIDTH 5 0
BBX 2 2 2 6
BITMAP
C0
C0
ENDCHAR

STARTCHAR cedilla
ENCODING 184
SWIDTH 333 0
DWIDTH 6 0
BBX 4 3 1 -3
BITMAP
60
30
E0
ENDCHAR

STARTCHAR onesuperior
ENCODING 185
SWIDTH 310 0
DWIDTH 6 0
BBX 4 8 1 5
BITMAP
20
E0
60
60
60
60
60
F0
ENDCHAR

STARTCHAR ordmasculine
ENCODING 186
SWIDTH 333 0
DWIDTH 6 0
BBX 5 6 1 8
BITMAP
70
D8
D8
D8
D8
70
ENDCHAR

STARTCHAR guillemotright
ENCODING 187
SWIDTH 500 0
DWIDTH 10 0
BBX 8 7 1 1
BITMAP
88
44
66
33
66
44
88
ENDCHAR

STARTCHAR onequarter
ENCODING 188
SWIDTH 788 0
DWIDTH 15 0
BBX 13 13 1 0
BITMAP
2080
E080
6100
6100
6200
6230
6470
F470
08B0
0930
11F8
1030
2078
ENDCHAR

STARTCHAR onehalf
ENCODING 189
SWIDTH 788 0
DWIDTH 15 0
BBX 12 13 2 0
BITMAP
2080
E080
6100
6100
6200
62E0
6530
F430
0830
0860
1040
1080
21F0
ENDCHAR

STARTCHAR threequarters
ENCODING 190
SWIDTH 788 0
DWIDTH 15 0
BBX 13 13 1 0
BITMAP
7040
9840
1880
7080
1900
1930
9A70
7270
04B0
0530
09F8
0830
1078
ENDCHAR

STARTCHAR questiondown
ENCODING 191
SWIDTH 444 0
DWIDTH 8 0
BBX 7 14 1 -5
BITMAP
0C
0C
00
08
08
18
30
60
C0
C0
C2
C2
E6
7C
ENDCHAR

STARTCHAR Agrave
ENCODING 192
SWIDTH 778 0
DWIDTH 15 0
BBX 15 16 0 0
BITMAP
0E00
0300
0000
0100
0100
0380
0380
04C0
04C0
0860
0860
1FF0
1030
2018
2018
F87E
ENDCHAR

STARTCHAR Aacute
ENCODING 193
SWIDTH 778 0
DWIDTH 15 0
BBX 15 16 0 0
BITMAP
01C0
0300
0000
0100
0100
0380
0380
04C0
04C0
0860
0860
1FF0
1030
2018
2018
F87E
ENDCHAR

STARTCHAR Acircumflex
ENCODING 194
SWIDTH 778 0
DWIDTH 15 0
BBX 15 16 0 0
BITMAP
0380
06C0
0000
0100
0100
0380
0380
04C0
04C0
0860
0860
1FF0
1030
2018
2018
F87E
ENDCHAR

STARTCHAR Atilde
ENCODING 195
SWIDTH 778 0
DWIDTH 15 0
BBX 15 16 0 0
BITMAP
0340
0580
0000
0100
0100
0380
0380
04C0
04C0
0860
0860
1FF0
1030
2018
2018
F87E
ENDCHAR

STARTCHAR Adieresis
ENCODING 196
SWIDTH 778 0
DWIDTH 15 0
BBX 15 16 0 0
BITMAP
0660
0660
0000
0100
0100
0380
0380
04C0
04C0
0860
0860
1FF0
1030
2018
2018
F87E
ENDCHAR

STARTCHAR Aring
ENCODING 197
SWIDTH 778 0
DWIDTH 15 0
BBX 15 17 0 0
BITMAP
0180
0240
0180
0000
0100
0100
0380
0380
04C0
04C0
0860
0860
1FF0
1030
2018
2018
F87E
ENDCHAR

STARTCHAR AE
ENCODING 198
SWIDTH 944 0
DWIDTH 18 0
BBX 17 13 0 0
BITMAP
03FF80
016080
016080
026000
026100
046100
047F00
086100
1FE100
106000
206080
206080
F8FF80
ENDCHAR

STARTCHAR Ccedilla
ENCODING 199
SWIDTH 709 0
DWIDTH 13 0
BBX 12 16 1 -3
BITMAP
0FF0
3010
6010
6000
C000
C000
C000
C000
C000
6000
6010
3020
0FC0
0600
0300
0E00
ENDCHAR

STARTCHAR Egrave
ENCODING 200
SWIDTH 611 0
DWIDTH 12 0
BBX 11 16 1 0
BITMAP
1C00
0600
0000
FFE0
3020
3020
3000
3080
3080
3F80
3080
3080
3000
3020
3020
FFE0
ENDCHAR

STARTCHAR Eacute
ENCODING 201
SWIDTH 611 0
DWIDTH 12 0
BBX 11 16 1 0
BITMAP
0380
0600
0000
FFE0
3020
3020
3000
3080
3080
3F80
3080
3080
3000
3020
3020
FFE0
ENDCHAR

STARTCHAR Ecircumflex
ENCODING 202
SWIDTH 611 0
DWIDTH 12 0
BBX 11 16 1 0
BITMAP
0700
0D80
0000
FFE0
3020
3020
3000
3080
3080
3F80
3080
3080
3000
3020
3020
FFE0
ENDCHAR

STARTCHAR Edieresis
ENCODING 203
SWIDTH 611 0
DWIDTH 12 0
BBX 11 16 1 0
BITMAP
1980
1980
0000
FFE0
3020
3020
3000
3080
3080
3F80
3080
3080
3000
3020
3020
FFE0
ENDCHAR

STARTCHAR Igrave
ENCODING 204
SWIDTH 337 0
DWIDTH 6 0
BBX 6 16 0 0
BITMAP
E0
30
00
FC
30
30
30
30
30
30
30
30
30
30
30
FC
ENDCHAR

STARTCHAR Iacute
ENCODING 205
SWIDTH 337 0
DWIDTH 6 0
BBX 6 16 0 0
BITMAP
1C
30
00
FC
30
30
30
30
30
30
30
30
30
30
30
FC
ENDCHAR

STARTCHAR Icircumflex
ENCODING 206
SWIDTH 337 0
DWIDTH 6 0
BBX 6 16 0 0
BITMAP
38
6C
00
FC
30
30
30
30
30
30
30
30
30
30
30
FC
ENDCHAR

STARTCHAR Idieresis
ENCODING 207
SWIDTH 337 0
DWIDTH 6 0
BBX 6 16 0 0
BITMAP
CC
CC
00
FC
30
30
30
30
30
30
30
30
30
30
30
FC
ENDCHAR

STARTCHAR Gbreve
ENCODING 208
SWIDTH 763 0
DWIDTH 14 0
BBX 13 16 1 0
BITMAP
0660
03C0
0000
0FF0
3010
6010
6000
C000
C000
C000
C000
C0F8
6030
6030
3030
0FE0
ENDCHAR

STARTCHAR Ntilde
ENCODING 209
SWIDTH 831 0
DWIDTH 16 0
BBX 14 16 1 0
BITMAP
0340
0580
0000
F07C
3810
3810
3C10
2E10
2610
2710
2390
21D0
20F0
20F0
2070
F830
ENDCHAR

STARTCHAR Ograve
ENCODING 210
SWIDTH 786 0
DWIDTH 15 0
BBX 13 16 1 0
BITMAP
1C00
0600
0000
0F80
3060
6030
6030
C018
C018
C018
C018
C018
6030
6030
3060
0F80
ENDCHAR

STARTCHAR Oacute
ENCODING 211
SWIDTH 786 0
DWIDTH 15 0
BBX 13 16 1 0
BITMAP
0380
0600
0000
0F80
3060
6030
6030
C018
C018
C018
C018
C018
6030
6030
3060
0F80
ENDCHAR

STARTCHAR Ocircumflex
ENCODING 212
SWIDTH 786 0
DWIDTH 15 0
BBX 13 16 1 0
BITMAP
0700
0D80
0000
0F80
3060
6030
6030
C018
C018
C018
C018
C018
6030
6030
3060
0F80
ENDCHAR

STARTCHAR Otilde
ENCODING 213
SWIDTH 786 0
DWIDTH 15 0
BBX 13 16 1 0
BITMAP
0680
0B00
0000
0F80
3060
6030
6030
C018
C018
C018
C018
C018
6030
6030
3060
0F80
ENDCHAR

STARTCHAR Odieresis
ENCODING 214
SWIDTH 786 0
DWIDTH 15 0
BBX 13 16 1 0
BITMAP
0CC0
0CC0
0000
0F80
3060
6030
6030
C018
C018
C018
C018
C018
6030
6030
3060
0F80
ENDCHAR

STARTCHAR multiply
ENCODING 215
SWIDTH 606 0
DWIDTH 12 0
BBX 8 7 2 3
BITMAP
C3
66
3C
18
3C
66
C3
ENDCHAR

STARTCHAR Oslash
ENCODING 216
SWIDTH 833 0
DWIDTH 15 0
BBX 13 13 1 0
BITMAP
0F90
3060
6070
60B0
C118
C118
C218
C418
C418
6830
7030
3060
4F80
ENDCHAR

STARTCHAR Ugrave
ENCODING 217
SWIDTH 778 0
DWIDTH 15 0
BBX 14 16 1 0
BITMAP
0700
0180
0000
FC7C
3010
3010
3010
3010
3010
3010
3010
3010
3010
3010
1820
0FC0
ENDCHAR

STARTCHAR Uacute
ENCODING 218
SWIDTH 778 0
DWIDTH 15 0
BBX 14 16 1 0
BITMAP
01C0
0300
0000
FC7C
3010
3010
3010
3010
3010
3010
3010
3010
3010
3010
1820
0FC0
ENDCHAR

STARTCHAR Ucircumflex
ENCODING 219
SWIDTH 778 0
DWIDTH 15 0
BBX 14 16 1 0
BITMAP
0380
06C0
0000
FC7C
3010
3010
3010
3010
3010
3010
3010
3010
3010
3010
1820
0FC0
ENDCHAR

STARTCHAR Udieresis
ENCODING 220
SWIDTH 778 0
DWIDTH 15 0
BBX 14 16 1 0
BITMAP
0CC0
0CC0
0000
FC7C
3010
3010
3010
3010
3010
3010
3010
3010
3010
3010
1820
0FC0
ENDCHAR

STARTCHAR Idotaccent
ENCODING 221
SWIDTH 337 0
DWIDTH 6 0
BBX 6 16 0 0
BITMAP
30
30
00
FC
30
30
30
30
30
30
30
30
30
30
30
FC
ENDCHAR

STARTCHAR Scedilla
ENCODING 222
SWIDTH 525 0
DWIDTH 11 0
BBX 9 16 1 -3
BITMAP
1F80
6080
C080
C000
E000
7800
3E00
0F00
0380
0180
8180
8300
FC00
1800
0C00
3800
ENDCHAR

STARTCHAR germandbls
ENCODING 223
SWIDTH 556 0
DWIDTH 11 0
BBX 9 14 0 0
BITMAP
0E00
1100
2180
6180
6180
E300
6400
6600
6300
6180
6180
6180
6580
F300
ENDCHAR

STARTCHAR agrave
ENCODING 224
SWIDTH 500 0
DWIDTH 10 0
BBX 9 12 1 0
BITMAP
3800
0C00
0000
3E00
4300
0300
1F00
6300
C300
C300
C700
7B80
ENDCHAR

STARTCHAR aacute
ENCODING 225
SWIDTH 500 0
DWIDTH 10 0
BBX 9 12 1 0
BITMAP
0E00
1800
0000
3E00
4300
0300
1F00
6300
C300
C300
C700
7B80
ENDCHAR

STARTCHAR acircumflex
ENCODING 226
SWIDTH 500 0
DWIDTH 10 0
BBX 9 12 1 0
BITMAP
1C00
3600
0000
3E00
4300
0300
1F00
6300
C300
C300
C700
7B80
ENDCHAR

STARTCHAR atilde
ENCODING 227
SWIDTH 500 0
DWIDTH 10 0
BBX 9 12 1 0
BITMAP
1A00
2C00
0000
3E00
4300
0300
1F00
6300
C300
C300
C700
7B80
ENDCHAR

STARTCHAR adieresis
ENCODING 228
SWIDTH 500 0
DWIDTH 10 0
BBX 9 12 1 0
BITMAP
3300
3300
0000
3E00
4300
0300
1F00
6300
C300
C300
C700
7B80
ENDCHAR

STARTCHAR aring
ENCODING 229
SWIDTH 500 0
DWIDTH 10 0
BBX 9 13 1 0
BITMAP
1800
2400
1800
0000
3E00
4300
0300
1F00
6300
C300
C300
C700
7B80
ENDCHAR

STARTCHAR ae
ENCODING 230
SWIDTH 758 0
DWIDTH 14 0
BBX 14 9 0 0
BITMAP
3CF0
4398
030C
030C
1FFC
6300
C300
C584
78F8
ENDCHAR

STARTCHAR ccedilla
ENCODING 231
SWIDTH 444 0
DWIDTH 8 0
BBX 7 12 1 -3
BITMAP
1E
62
C2
C0
C0
C0
C0
62
3C
18
0C
38
ENDCHAR

STARTCHAR egrave
ENCODING 232
SWIDTH 479 0
DWIDTH 9 0
BBX 8 12 1 0
BITMAP
70
18
00
3C
66
C3
C3
FF
C0
C0
61
3E
ENDCHAR

STARTCHAR eacute
ENCODING 233
SWIDTH 479 0
DWIDTH 9 0
BBX 8 12 1 0
BITMAP
0E
18
00
3C
66
C3
C3
FF
C0
C0
61
3E
ENDCHAR

STARTCHAR ecircumflex
ENCODING 234
SWIDTH 479 0
DWIDTH 9 0
BBX 8 12 1 0
BITMAP
1C
36
00
3C
66
C3
C3
FF
C0
C0
61
3E
ENDCHAR

STARTCHAR edieresis
ENCODING 235
SWIDTH 479 0
DWIDTH 9 0
BBX 8 12 1 0
BITMAP
66
66
00
3C
66
C3
C3
FF
C0
C0
61
3E
ENDCHAR

STARTCHAR igrave
ENCODING 236
SWIDTH 287 0
DWIDTH 5 0
BBX 6 12 0 0
BITMAP
E0
30
00
10
F0
30
30
30
30
30
30
FC
ENDCHAR

STARTCHAR iacute
ENCODING 237
SWIDTH 287 0
DWIDTH 5 0
BBX 6 12 0 0
BITMAP
38
60
00
10
F0
30
30
30
30
30
30
FC
ENDCHAR

STARTCHAR icircumflex
ENCODING 238
SWIDTH 287 0
DWIDTH 5 0
BBX 6 12 0 0
BITMAP
38
6C
00
10
F0
30
30
30
30
30
30
FC
ENDCHAR

STARTCHAR idieresis
ENCODING 239
SWIDTH 287 0
DWIDTH 5 0
BBX 6 12 0 0
BITMAP
CC
CC
00
10
F0
30
30
30
30
30
30
FC
ENDCHAR

STARTCHAR gbreve
ENCODING 240
SWIDTH 556 0
DWIDTH 11 0
BBX 10 17 1 -5
BITMAP
3300
1E00
0000
3CC0
4300
C300
C300
C200
7C00
3000
6000
3F00
4380
C180
C180
6300
3E00
ENDCHAR

STARTCHAR ntilde
ENCODING 241
SWIDTH 582 0
DWIDTH 11 0
BBX 12 12 0 0
BITMAP
0D00
1600
0000
1780
F8C0
30C0
30C0
30C0
30C0
30C0
30C0
FCF0
ENDCHAR

STARTCHAR ograve
ENCODING 242
SWIDTH 546 0
DWIDTH 10 0
BBX 9 12 1 0
BITMAP
3800
0C00
0000
3E00
6300
C180
C180
C180
C180
C180
6300
3E00
ENDCHAR

STARTCHAR oacute
ENCODING 243
SWIDTH 546 0
DWIDTH 10 0
BBX 9 12 1 0
BITMAP
0E00
1800
0000
3E00
6300
C180
C180
C180
C180
C180
6300
3E00
ENDCHAR

STARTCHAR ocircumflex
ENCODING 244
SWIDTH 546 0
DWIDTH 10 0
BBX 9 12 1 0
BITMAP
1C00
3600
0000
3E00
6300
C180
C180
C180
C180
C180
6300
3E00
ENDCHAR

STARTCHAR otilde
ENCODING 245
SWIDTH 546 0
DWIDTH 10 0
BBX 9 12 1 0
BITMAP
1A00
2C00
0000
3E00
6300
C180
C180
C180
C180
C180
6300
3E00
ENDCHAR

STARTCHAR odieresis
ENCODING 246
SWIDTH 546 0
DWIDTH 10 0
BBX 9 12 1 0
BITMAP
3300
3300
0000
3E00
6300
C180
C180
C180
C180
C180
6300
3E00
ENDCHAR

STARTCHAR divide
ENCODING 247
SWIDTH 606 0
DWIDTH 12 0
BBX 10 9 1 2
BITMAP
0C00
0C00
0000
0000
FFC0
0000
0000
0C00
0C00
ENDCHAR

STARTCHAR oslash
ENCODING 248
SWIDTH 556 0
DWIDTH 10 0
BBX 9 9 1 0
BITMAP
3E80
6300
C380
C580
C980
C980
D180
6300
BE00
ENDCHAR

STARTCHAR ugrave
ENCODING 249
SWIDTH 603 0
DWIDTH 11 0
BBX 11 12 0 0
BITMAP
1C00
0600
0000
1040
F3C0
30C0
30C0
30C0
30C0
30C0
31C0
1EE0
ENDCHAR

STARTCHAR uacute
ENCODING 250
SWIDTH 603 0
DWIDTH 11 0
BBX 11 12 0 0
BITMAP
0700
0C00
0000
1040
F3C0
30C0
30C0
30C0
30C0
30C0
31C0
1EE0
ENDCHAR

STARTCHAR ucircumflex
ENCODING 251
SWIDTH 603 0
DWIDTH 11 0
BBX 11 12 0 0
BITMAP
0E00
1B00
0000
1040
F3C0
30C0
30C0
30C0
30C0
30C0
31C0
1EE0
ENDCHAR

STARTCHAR udieresis
ENCODING 252
SWIDTH 603 0
DWIDTH 11 0
BBX 11 12 0 0
BITMAP
1980
1980
0000
1040
F3C0
30C0
30C0
30C0
30C0
30C0
31C0
1EE0
ENDCHAR

STARTCHAR dotlessi
ENCODING 253
SWIDTH 287 0
DWIDTH 5 0
BBX 6 9 0 0
BITMAP
10
F0
30
30
30
30
30
30
FC
ENDCHAR

STARTCHAR scedilla
ENCODING 254
SWIDTH 424 0
DWIDTH 8 0
BBX 6 12 1 -3
BITMAP
7C
84
C4
E0
78
1C
8C
84
F8
30
18
70
ENDCHAR

STARTCHAR ydieresis
ENCODING 255
SWIDTH 556 0
DWIDTH 11 0
BBX 10 17 1 -5
BITMAP
3300
3300
0000
F3C0
6180
6100
3100
3200
1A00
1C00
0C00
0800
0800
1000
1000
A000
C000
ENDCHAR
ENDFONT
